<svg id="Capa_1" enable-background="new 0 0 512 512" viewBox="0 0 512 512" xmlns="http://www.w3.org/2000/svg"><g><path d="m183.938 327.079-37.749 83.047c-2.587 5.692-1.373 12.392 3.049 16.813 4.405 4.406 11.102 5.646 16.813 3.049l83.046-37.749c4.929-2.24 9.371-5.317 13.2-9.147 19.055-19.055 159.3-159.3 177.713-177.713l-69.213-69.213-177.712 177.714c-3.83 3.829-6.907 8.27-9.147 13.199z"/><path d="m497.411 78.766c-16.148-16.151-41.668-18.255-60.212-5.242-3.949 2.771-1.905 1.123-44.887 41.731l68.61 68.61 36.654-38.796c18.161-18.339 18.106-48.032-.165-66.303z"/><path d="m283.512 404.304c-6.381 6.382-13.784 11.512-22 15.247l-83.045 37.748c-16.656 7.572-36.809 4.491-50.443-9.146-13.189-13.189-16.865-33.46-9.147-50.441l37.748-83.046c3.735-8.218 8.865-15.62 15.245-21.999 217.265-217.264 180.964-181.385 210.974-209.738v-67.929c0-8.284-6.716-15-15-15h-320c-8.284 0-15 6.716-15 15v66h-17c-8.284 0-15 6.716-15 15s6.716 15 15 15h17v50h-17c-8.284 0-15 6.716-15 15s6.716 15 15 15h17v50h-17c-8.284 0-15 6.716-15 15s6.716 15 15 15h17v50h-17c-8.284 0-15 6.716-15 15s6.716 15 15 15h17v50h-17c-8.284 0-15 6.716-15 15s6.716 15 15 15h17v66c0 8.284 6.716 15 15 15h320c8.284 0 15-6.716 15-15v-192.028zm-123.668-323.304h144c8.284 0 15 6.716 15 15s-6.716 15-15 15h-144c-8.284 0-15-6.716-15-15s6.716-15 15-15zm0 80h96c8.284 0 15 6.716 15 15s-6.716 15-15 15h-96c-8.284 0-15-6.716-15-15s6.716-15 15-15z"/></g></svg>
