<?xml version="1.0" encoding="UTF-8" standalone="no"?><!DOCTYPE svg PUBLIC "-//W3C//DTD SVG 1.1//EN" "http://www.w3.org/Graphics/SVG/1.1/DTD/svg11.dtd"><svg width="100%" height="100%" viewBox="0 0 1600 900" version="1.1" xmlns="http://www.w3.org/2000/svg" xmlns:xlink="http://www.w3.org/1999/xlink" xml:space="preserve" xmlns:serif="http://www.serif.com/" style="fill-rule:evenodd;clip-rule:evenodd;stroke-linejoin:round;stroke-miterlimit:2;"><path d="M957,450l-418,450l857,0l-439,-450Z" style="fill:#553c9a;fill-rule:nonzero;"/><path d="M957,450l-84.1,450l523.1,0l-439,-450Z" style="fill:#553c9a;fill-rule:nonzero;"/><path d="M-60,900l458,-238l418,238l-876,0Z" style="fill:#6a4db9;fill-rule:nonzero;"/><path d="M337,900l61,-238l418,238l-479,0Z" style="fill:#6a4db9;fill-rule:nonzero;"/><path d="M1203,546l349,354l-676,0l327,-354Z" style="fill:#8a74c7;fill-rule:nonzero;"/><path d="M1203,546l349,354l-390,0l41,-354Z" style="fill:#8a74c7;fill-rule:nonzero;"/><path d="M641,695l245,205l-519,0l274,-205Z" style="fill:#8a74c7;fill-rule:nonzero;"/><path d="M587,900l54,-205l245,205l-299,0Z" style="fill:#8a74c7;fill-rule:nonzero;"/><path d="M1710,900l-309,-268l-305,268l614,0Z" style="fill:#6a4db9;fill-rule:nonzero;"/><path d="M1710,900l-309,-268l-36,268l345,0Z" style="fill:#6a4db9;fill-rule:nonzero;"/><path d="M1210,900l-239,-213l-246,213l485,0Z" style="fill:#fff;fill-rule:nonzero;"/><path d="M943,900l267,0l-239,-213l-28,213Z" style="fill:#fff;fill-rule:nonzero;"/></svg>