<?xml version="1.0" encoding="UTF-8" standalone="no"?><!DOCTYPE svg PUBLIC "-//W3C//DTD SVG 1.1//EN" "http://www.w3.org/Graphics/SVG/1.1/DTD/svg11.dtd"><svg width="100%" height="100%" viewBox="0 0 512 512" version="1.1" xmlns="http://www.w3.org/2000/svg" xmlns:xlink="http://www.w3.org/1999/xlink" xml:space="preserve" xmlns:serif="http://www.serif.com/" style="fill-rule:evenodd;clip-rule:evenodd;stroke-linejoin:round;stroke-miterlimit:2;"><g id="background"><g><path d="M106.855,243.726l-259.967,272.379l532.995,-0l-273.028,-272.379Z" style="fill:#319795;fill-rule:nonzero;"/></g><g><path d="M106.855,243.726l-52.304,272.379l325.332,-0l-273.028,-272.379Z" style="fill:#319795;fill-rule:nonzero;"/></g><g><path d="M-392.691,508.614l284.845,-148.019l259.967,148.019l-544.812,0Z" style="fill:#63aba9;fill-rule:nonzero;"/></g><g><path d="M-278.742,519.85l37.938,-148.019l259.967,148.019l-297.905,0Z" style="fill:#63aba9;fill-rule:nonzero;"/></g><g><path d="M259.85,299.687l217.054,220.163l-420.425,0l203.371,-220.163Z" style="fill:#8cc0be;fill-rule:nonzero;"/></g><g><path d="M259.85,299.687l217.054,220.163l-242.553,0l25.499,-220.163Z" style="fill:#8cc0be;fill-rule:nonzero;"/></g><g><path d="M-89.675,392.354l152.373,127.496l-322.782,0l170.409,-127.496Z" style="fill:#b3d5d3;fill-rule:nonzero;"/></g><g><path d="M-123.26,519.85l33.585,-127.496l152.373,127.496l-185.958,0Z" style="fill:#b3d5d3;fill-rule:nonzero;"/></g><g><path d="M665.056,514.232l-192.177,-166.677l-189.689,166.677l381.866,0Z" style="fill:#d9eae9;fill-rule:nonzero;"/></g><g><path d="M708.127,508.614l-192.177,-166.677l-22.389,166.677l214.566,0Z" style="fill:#d9eae9;fill-rule:nonzero;"/></g><g><path d="M264.204,519.85l-148.642,-132.471l-152.995,132.471l301.637,0Z" style="fill:#fff;fill-rule:nonzero;"/></g><g><path d="M98.148,519.85l166.056,0l-148.642,-132.471l-17.414,132.471Z" style="fill:#fff;fill-rule:nonzero;"/></g></g><g><text id="title" x="55.343px" y="214.315px" style="font-family:'Quicksand-Bold', 'Quicksand';font-weight:700;font-size:146.016px;fill:#2f3030;">A<tspan x="156.385px 251.735px 350.879px " y="214.315px 214.315px 214.315px ">PCR</tspan></text></g></svg>