<svg version="1" xmlns="http://www.w3.org/2000/svg" width="2000" height="2000" viewBox="0 0 1500.000000 1500.000000"><path d="M480.5 218.1c-12.4.7-54.7 8.1-69 11.9-38.2 10.3-65 20.9-90.5 35.8-49 28.6-67.1 42.2-100.1 75.1-15.2 15.3-25.4 26.5-31.5 34.6-42.6 56.5-66.9 108.9-81.8 176.2-6.7 30.1-7.1 35.2-7.1 89.8.1 56.2.3 58.7 8.3 91 11.9 47.4 18.1 65.4 33.6 96.2 21.8 43.6 45 75.8 79 109.9 34.5 34.5 68.6 59.5 106.1 77.9 31.1 15.2 65.8 27.5 101.5 35.9 29.9 7 39.1 7.7 89.6 7.3 46.1-.4 50.5-.8 78.9-7.1 29.3-6.5 83.2-29.1 115.9-48.6 29.2-17.3 64-43.5 97.6-73.1 18.6-16.4 46.7-45.3 66.9-68.7 9.4-10.9 36-44.3 51.8-65 7.4-9.8 13.9-17.7 14.6-17.7 1.4 0 12.1 20.2 48.3 90.9C1007.2 899 1025 933 1032 946c7.1 13.1 15 27.9 17.6 33.1 7.7 15.3 15 25.5 27.4 38 19 19.1 30 25.5 66.5 38.2l12 4.2 29.6.3c28.7.3 29.9.3 39.7-2.1 11.8-3 25.8-8.4 36-13.9 16-8.7 33.7-24.2 43.6-38.1 6.4-8.9 13.9-24.5 17.5-36.2 3.4-11.2 5.9-24.1 4.8-25.1-1.5-1.5-29-1.6-74.7-.4-70.2 1.9-65.5 2-71.9-1.5-2.9-1.6-6.4-4.3-7.6-6-1.2-1.6-30.7-60-65.5-129.6-60.1-120.4-63.2-126.9-63.2-132.1 0-3 .5-7.2 1.2-9.3 1.3-3.8 21.9-29.9 80.5-102 14.3-17.6 33.2-41 42-51.9 8.8-10.9 23.2-28.7 32-39.6 8.8-10.9 19.4-24.1 23.5-29.4 4.1-5.3 10-12.8 13-16.6 3-3.8 7.8-9.9 10.5-13.5 2.8-3.6 7.8-9.9 11.3-14 3.4-4 6.2-7.7 6.2-8 0-.8 3.9-5.9 7.8-10.2l2.4-2.6-3.9-3.8c-2.1-2.1-4.3-3.8-5-3.9-.7 0-1-.6-.7-1.3.5-1.3-.5-2.5-5.9-7.2-1.5-1.3-2.6-2.9-2.5-3.6.2-.6-.6-1.6-1.7-2.2-2.5-1.5-4.3-3.6-5.5-6.5-.6-1.3-1.4-2-2-1.7-.6.3-1.4-.5-2-1.9-.5-1.4-1.8-3.1-3-3.8-1.1-.7-2-1.8-2-2.5 0-.6-2-2.8-4.5-4.8-2.4-2-4.3-4-4.2-4.4.2-.7-3.4-4.9-11.5-13.5-2.7-2.7-4.8-5.5-4.8-6.1 0-.7-2.5-3.6-5.5-6.4-3-2.9-5.5-5.6-5.5-6.1s-.9-1.4-1.9-2c-1.1-.5-2.3-1.9-2.6-3.1-1-2.9-11.5-13.3-12.4-12.3-41.4 47.9-53.4 61.9-57.1 66.4-2.5 3-12.6 15-22.5 26.6-26.9 31.5-51.3 60.5-97.8 116.1-23 27.7-42.3 50.3-42.7 50.3-1.4 0-8.5-9.1-16.8-21.6-15.2-23-41.5-58.3-63.6-85.4-36.8-45.1-46.8-56.2-68.3-76.2-43.4-40.4-70-60.9-110.3-85-17.7-10.6-24.4-14-42.6-22.3-28.4-12.9-66.5-24.5-93.6-28.5-18.8-2.8-67.7-4.4-91.3-2.9zm63.5 115c11.6 1.1 30 4.8 40 8 19.8 6.4 56.8 23.8 74.9 35.4 18.4 11.7 27.2 18.8 55.1 44.2 32.9 29.8 52.7 53.4 92.3 109.9 30.4 43.4 57.3 89 61.2 104.1 2 7.6 1.1 11.6-6.9 28.7-10.6 22.6-18 35.5-31.3 54.6-2.1 3-8.5 12.2-14.2 20.5-44.9 64.7-53.1 74-115 131-26.5 24.5-42.2 35.7-67.6 48.3-30.6 15.2-58.9 24.5-82.4 27.2-26 2.9-57.8 2-76.4-2-25.2-5.6-59.7-18.8-87.6-33.7-26.2-14-54.5-36.8-77.9-62.6-33.4-37-59.7-85.6-71-131.2-7.2-28.8-9.1-43.5-9.9-75-.7-28.1.1-37.9 4.7-57.5 13.7-59.2 36.1-104.9 72.1-146.5 11.8-13.6 37.1-38.2 46.9-45.4 12.7-9.4 42.2-26.6 59.5-34.6 22.4-10.4 61.9-20.9 88.5-23.4 21.4-2.1 23.6-2.1 45 0z"/></svg>