<?xml version="1.0" standalone="no"?>
<!DOCTYPE svg PUBLIC "-//W3C//DTD SVG 20010904//EN"
 "http://www.w3.org/TR/2001/REC-SVG-20010904/DTD/svg10.dtd">
<svg version="1.0" xmlns="http://www.w3.org/2000/svg"
 width="512.000000pt" height="512.000000pt" viewBox="0 0 512.000000 512.000000"
 preserveAspectRatio="xMidYMid meet">
<metadata>
Created by potrace 1.11, written by Peter Selinger 2001-2013
</metadata>
<g transform="translate(0.000000,512.000000) scale(0.100000,-0.100000)"
fill="#000000" stroke="none">
<path d="M1005 3992 c-26 -16 -59 -84 -232 -469 -126 -279 -203 -462 -203
-481 0 -43 31 -72 76 -72 58 0 73 16 125 126 l49 104 234 0 234 0 50 -104 c28
-58 59 -109 70 -115 59 -32 142 9 142 70 0 22 -243 572 -386 875 -38 80 -96
104 -159 66z m130 -460 c36 -77 65 -143 65 -146 0 -3 -65 -6 -145 -6 -80 0
-145 4 -145 9 0 5 25 62 56 127 31 66 62 135 70 154 18 42 11 52 99 -138z"/>
<path d="M3007 3995 c-209 -43 -378 -202 -418 -393 -16 -79 -7 -233 19 -304
77 -216 313 -352 581 -335 102 6 214 39 247 72 44 44 28 116 -31 141 -30 12
-41 12 -102 -8 -90 -28 -215 -30 -296 -4 -67 22 -147 88 -177 145 -58 114 -49
285 20 380 88 121 273 168 443 112 44 -15 77 -20 97 -16 66 15 93 104 45 149
-64 60 -284 91 -428 61z"/>
<path d="M1710 3971 l-30 -29 0 -452 c0 -304 4 -458 11 -472 13 -24 71 -50 96
-42 75 24 83 45 83 225 l0 137 178 4 c175 3 178 3 231 33 63 35 115 91 147
160 74 159 11 343 -148 430 l-53 30 -243 3 -242 3 -30 -30z m469 -159 c42 -21
81 -89 81 -142 0 -53 -39 -121 -81 -142 -27 -15 -60 -18 -171 -18 l-138 0 0
160 0 160 138 0 c111 0 144 -3 171 -18z"/>
<path d="M3663 3982 c-12 -9 -27 -30 -32 -45 -14 -36 -15 -855 -2 -890 14 -36
37 -55 80 -67 50 -13 85 0 106 39 11 23 15 64 15 182 l0 152 173 -5 c110 -3
182 -10 199 -18 35 -16 54 -59 62 -137 11 -113 52 -179 132 -209 115 -44 194
52 109 131 -30 29 -36 43 -46 107 -13 89 -36 144 -77 181 l-30 29 44 40 c65
60 99 136 98 223 0 89 -25 147 -91 213 -86 86 -115 92 -441 92 -247 0 -279 -2
-299 -18z m554 -173 c18 -11 40 -34 48 -49 33 -63 9 -187 -45 -235 -20 -18
-39 -20 -206 -23 l-184 -3 0 165 0 166 176 0 c162 0 179 -2 211 -21z"/>
<path d="M531 2124 l-531 -556 0 -661 c0 -628 1 -659 18 -645 87 73 510 437
777 668 182 157 338 291 347 298 16 13 91 -51 715 -607 l698 -621 1282 0 1283
0 -1 673 c0 369 -3 665 -7 656 -6 -13 -48 20 -195 148 l-188 164 -47 -42
c-454 -401 -834 -730 -841 -727 -4 2 -284 283 -621 626 -337 342 -616 622
-620 622 -4 0 -108 -110 -231 -244 -123 -135 -229 -245 -234 -245 -6 -1 -246
235 -535 524 -289 289 -528 525 -532 525 -3 0 -245 -250 -537 -556z"/>
</g>
</svg>
